<?xml version="1.0" encoding="iso-8859-1"?>
<!-- Uploaded to: SVG Repo, www.svgrepo.com, Generator: SVG Repo Mixer Tools -->
<svg version="1.1" id="Layer_1" xmlns="http://www.w3.org/2000/svg" xmlns:xlink="http://www.w3.org/1999/xlink" 
	 viewBox="0 0 512 512" xml:space="preserve">
<path style="fill:#D9DCDF;" d="M439.85,179.574H110.63c-2.126,0-4.164,0.844-5.669,2.347L6.623,280.26
	c-1.503,1.505-2.347,3.543-2.347,5.669v218.054c0,4.428,3.588,8.017,8.017,8.017H439.85c4.428,0,8.017-3.588,8.017-8.017V187.591
	C447.866,183.162,444.278,179.574,439.85,179.574z"/>
<g>
	<path style="fill:#F6F6F7;" d="M106.711,180.611c-0.63,0.354-1.223,0.785-1.75,1.312L6.623,280.261
		c0.065,0.156,0.069,0.168,0.135,0.325h91.937c4.427,0,8.017-3.589,8.017-8.017V180.611z"/>
	<path style="fill:#F6F6F7;" d="M106.889,401.904v42.221c0,4.428,3.588,8.017,8.017,8.017h222.33c4.428,0,8.017-3.588,8.017-8.017
		v-42.221H106.889z"/>
</g>
<rect x="106.889" y="401.904" style="fill:#ECEDEF;" width="238.363" height="16.924"/>
<path style="fill:#68727E;" d="M226.071,0c-46.857,0-84.977,38.12-84.977,84.977c0,38.716,15.62,67.166,29.401,92.266
	c11.755,21.41,21.906,39.899,21.906,61.655c0,4.428,3.588,8.017,8.017,8.017h51.307c4.428,0,8.017-3.588,8.017-8.017
	c0-21.756,10.151-40.245,21.906-61.655c13.781-25.1,29.401-53.549,29.401-92.266C311.048,38.12,272.928,0,226.071,0z"/>
<path style="fill:#55606E;" d="M208.969,238.898c0-21.756-10.151-40.245-21.906-61.655c-13.781-25.1-29.401-53.549-29.401-92.266
	c0-44.062,33.71-80.389,76.693-84.568C231.628,0.144,228.866,0,226.071,0c-46.857,0-84.977,38.12-84.977,84.977
	c0,38.716,15.62,67.166,29.401,92.266c11.755,21.41,21.906,39.899,21.906,61.655c0,4.428,3.588,8.017,8.017,8.017h16.568
	C212.557,246.914,208.969,243.326,208.969,238.898z"/>
<path style="fill:#FF8C78;" d="M354.338,350.597c-7.161,0-30.023-13.577-54.322-39.068c-25.218-26.455-40.275-53.607-40.275-72.631
	h-67.34c0,19.024-15.056,46.176-40.275,72.631c-24.299,25.491-47.162,39.068-54.322,39.068c-4.428,0-8.017,3.588-8.017,8.017
	h272.568C362.355,354.185,358.767,350.597,354.338,350.597z"/>
<g>
	<path style="fill:#DF7A6E;" d="M106.355,358.614c0-4.428,3.588-8.017,8.017-8.017c7.161,0,30.023-13.577,54.322-39.068
		c25.218-26.455,40.275-53.607,40.275-72.631h-16.568c0,19.024-15.056,46.176-40.275,72.631
		c-24.299,25.491-47.162,39.068-54.322,39.068c-4.428,0-8.017,3.588-8.017,8.017c0,4.428,3.588,8.017,8.017,8.017h16.568
		C109.943,366.63,106.355,363.042,106.355,358.614z"/>
	<path style="fill:#DF7A6E;" d="M354.338,350.597c-4.851,0-16.91-6.238-31.735-18.18H129.539
		c-14.826,11.942-26.885,18.18-31.735,18.18c-4.428,0-8.017,3.588-8.017,8.017h272.568
		C362.355,354.185,358.767,350.597,354.338,350.597z"/>
</g>
<path style="fill:#FF8C78;" d="M371.441,350.597H80.701c-4.428,0-8.017,3.588-8.017,8.017v42.756c0,4.428,3.588,8.017,8.017,8.017
	h290.739c4.428,0,8.017-3.588,8.017-8.017v-42.756C379.457,354.185,375.869,350.597,371.441,350.597z"/>
<path style="fill:#DF7A6E;" d="M80.701,350.597c-4.428,0-8.017,3.588-8.017,8.017v42.756c0,4.428,3.588,8.017,8.017,8.017h13.183
	v-58.789H80.701z"/>
<rect x="242.821" y="350.597" style="fill:#FFC5BB;" width="53.445" height="58.789"/>
<path style="fill:#FF8C78;" d="M446.925,12.798c-2.961-5.554-11.189-5.554-14.15,0c-6.222,11.676-60.8,115.062-60.8,149.14
	c0,37.426,30.449,67.875,67.875,67.875s67.875-30.449,67.875-67.875C507.724,127.86,453.147,24.473,446.925,12.798z"/>
<path style="fill:#DF7A6E;" d="M457.486,213.066c-37.426,0-67.875-30.449-67.875-67.875c0-28.212,37.406-103.925,53.813-135.779
	c-1.093-0.546-2.309-0.86-3.575-0.86c-2.962,0-5.681,1.632-7.075,4.247c-6.222,11.676-60.8,115.062-60.8,149.14
	c0,37.426,30.449,67.875,67.875,67.875c22.466,0,42.407-10.98,54.768-27.846C483.94,208.974,471.185,213.066,457.486,213.066z"/>
<circle style="fill:#FFD6C4;" cx="474.054" cy="161.937" r="17.102"/>
<circle style="fill:#D9DCDF;" cx="247.449" cy="63.599" r="21.378"/>
</svg>